<svg width="50" height="50" viewBox="0 0 50 50" fill="none" xmlns="http://www.w3.org/2000/svg">
<path d="M20.05 44.7135C29.424 44.7135 37.0231 37.1144 37.0231 27.7404C37.0231 18.3664 29.424 10.7673 20.05 10.7673C10.676 10.7673 3.0769 18.3664 3.0769 27.7404C3.0769 37.1144 10.676 44.7135 20.05 44.7135Z" fill="#C8E7E7"/>
<path d="M20.2419 40.8593L20.0266 40.4925C16.7381 34.8896 7.99948 22.9994 7.91121 22.88L7.78516 22.7087L10.7624 19.7664L20.1866 26.3471C26.1204 18.6472 31.6561 13.3585 35.2671 10.2702C39.2172 6.89181 41.7884 5.33653 41.8144 5.32162L41.8729 5.28662H46.9231L46.4407 5.71624C34.034 16.7668 20.5865 40.2537 20.4526 40.4897L20.2419 40.8593Z" fill="#007979"/>
</svg>
