<svg width="40" height="40" viewBox="0 0 40 40" fill="none" xmlns="http://www.w3.org/2000/svg">
<path d="M20.5437 0C9.58075 0 3.75049 7.02532 3.75049 14.6857C3.75049 18.2383 5.73558 22.6685 8.91322 24.0736C9.39574 24.2911 9.65825 24.1986 9.76576 23.7511C9.86076 23.4111 10.2783 21.7735 10.4808 21.0009C10.5433 20.7534 10.5108 20.5384 10.3108 20.3059C9.25574 19.0859 8.4182 16.8633 8.4182 14.7782C8.4182 9.43542 12.6659 4.24769 19.8937 4.24769C26.144 4.24769 30.5167 8.30787 30.5167 14.1156C30.5167 20.6784 27.044 25.2186 22.5313 25.2186C20.0337 25.2186 18.1736 23.2585 18.7637 20.8334C19.4762 17.9458 20.8738 14.8407 20.8738 12.7581C20.8738 10.8905 19.8187 9.34542 17.6636 9.34542C15.121 9.34542 13.0584 11.863 13.0584 15.2432C13.0584 17.3908 13.8184 18.8408 13.8184 18.8408C13.8184 18.8408 11.3033 29.0013 10.8358 30.8989C10.0458 34.1115 10.9433 39.3143 11.0208 39.7618C11.0683 40.0093 11.3458 40.0868 11.5008 39.8843C11.7483 39.5593 14.7885 35.2216 15.641 32.0864C15.951 30.9439 17.2236 26.3112 17.2236 26.3112C18.0611 27.8237 20.4787 29.0913 23.0539 29.0913C30.7142 29.0913 36.2495 22.3585 36.2495 14.0031C36.222 5.99277 29.3666 0 20.5437 0Z" fill="#D32F2F"/>
</svg>
