<svg width="50" height="50" viewBox="0 0 50 50" fill="none" xmlns="http://www.w3.org/2000/svg">
<path d="M28.4949 26.6289L8.4411 49.3244C7.64518 50.2252 6.35478 50.2252 5.55871 49.3245L0.59693 43.71C-0.198841 42.8093 -0.19899 41.3493 0.596781 40.4487L14.2479 24.9982L6.24563 15.9431L0.59708 9.55135C-0.198841 8.65071 -0.198841 7.19053 0.59708 6.28989L5.55885 0.67548C6.35477 -0.22516 7.64518 -0.22516 8.4411 0.67548L21.9335 15.9431L28.4949 23.3677C29.2906 24.2681 29.2908 25.7283 28.4949 26.6289Z" fill="#82BDBD"/>
<path d="M22.0888 16.1256L14.2449 25.0015L11.2467 21.609L6.24567 15.9427L0.59712 9.55103C-0.198801 8.65039 -0.198801 7.19021 0.59712 6.28957L5.55844 0.675501C6.35451 -0.225309 7.64522 -0.225139 8.44099 0.675843L19.0906 12.7328L22.0888 16.1256Z" fill="#199898"/>
<path d="M22.0888 16.1254L14.2449 25.0013L12.3427 22.8452L20.1866 13.9694L22.0888 16.1254Z" fill="#007979"/>
<path d="M49.4031 26.6289L29.3494 49.3244C28.5535 50.2252 27.2631 50.2252 26.467 49.3245L21.5052 43.71C20.7095 42.8093 20.7093 41.3493 21.5051 40.4487L35.1562 24.9982L27.1539 15.9431L21.5054 9.55135C20.7095 8.65071 20.7095 7.19053 21.5054 6.28989L26.467 0.67548C27.2629 -0.22516 28.5533 -0.22516 29.3492 0.67548L42.8417 15.9431L49.403 23.3677C50.1989 24.2681 50.1991 25.7283 49.4031 26.6289Z" fill="#199898"/>
<path d="M42.9971 16.1256L35.1532 25.0015L32.155 21.609L27.1539 15.9427L21.5054 9.55103C20.7095 8.65039 20.7095 7.19021 21.5054 6.28957L26.4667 0.675501C27.2628 -0.225309 28.5535 -0.225139 29.3492 0.675843L39.9989 12.7328L42.9971 16.1256Z" fill="#82BDBD"/>
<path d="M42.9971 16.1254L35.1532 25.0013L33.251 22.8452L41.0949 13.9694L42.9971 16.1254Z" fill="#82BDBD"/>
</svg>
